<?xml version="1.0" encoding="utf-8"?>
<!-- Generator: Adobe Illustrator 27.9.4, SVG Export Plug-In . SVG Version: 9.03 Build 54784)  -->
<svg version="1.1" id="Layer_1" xmlns="http://www.w3.org/2000/svg" xmlns:xlink="http://www.w3.org/1999/xlink" x="0px" y="0px"
	 viewBox="0 0 72 72" style="enable-background:new 0 0 72 72;" xml:space="preserve">
<style type="text/css">
	.st0{clip-path:url(#SVGID_00000181795825998208829070000007552892861554324357_);fill:#F77B00;}
	.st1{fill:none;}
	.st2{fill:#FFFFFF;}
</style>
<g>
	<g>
		<g>
			<defs>
				<rect id="SVGID_1_" x="1" y="1.2" width="70" height="69.9"/>
			</defs>
			<clipPath id="SVGID_00000116199358834608634540000006994578778566111916_">
				<use xlink:href="#SVGID_1_"  style="overflow:visible;"/>
			</clipPath>
			<path style="clip-path:url(#SVGID_00000116199358834608634540000006994578778566111916_);fill:#F77B00;" d="M36,71.1
				c19.3,0,35-15.7,35-35s-15.6-35-35-35S1,16.8,1,36.2C1,55.5,16.7,71.1,36,71.1"/>
		</g>
	</g>
</g>
<g>
	<path class="st1" d="M61.9,57c-2,0-3.3,1.3-5.3,1.3S53.3,57,51.3,57c-1.1,0-2,0.4-2.8,0.7c-0.8,0.3-1.5,0.6-2.4,0.6c0,0,0,0,0,0
		c0,0,0,0,0,0c-0.1,0-0.2,0-0.3,0c-0.1,0-0.3,0-0.4,0c0,0-0.1,0-0.1,0c-1.5-0.3-2.7-1.2-4.4-1.2c-2,0-3.3,1.3-5.3,1.3
		S32.1,57,30.1,57s-3.3,1.3-5.3,1.3S21.5,57,19.5,57s-3.3,1.3-5.3,1.3S10.9,57,8.9,57c-0.3,0-0.6,0-0.9,0.1c6.4,8.5,16.6,14,28,14
		c11.3,0,21.4-5.4,27.8-13.7C63.2,57.2,62.6,57,61.9,57z"/>
	<path class="st1" d="M14.4,54.3c2,0,3.3-1.3,5.3-1.3s3.3,1.3,5.3,1.3s3.3-1.3,5.3-1.3s3.3,1.3,5.3,1.3s3.3-1.3,5.3-1.3
		c1.5,0,2.6,0.8,3.8,1.1c0.4,0.1,0.8,0.2,1.2,0.2c0,0,0.1,0,0.1,0c0.1,0,0.2,0,0.3,0c0.1,0,0.3,0,0.4,0c0,0,0.1,0,0.1,0
		c0.7-0.1,1.3-0.4,1.9-0.6v0c0.8-0.3,1.6-0.6,2.5-0.6c2,0,3.5,1.3,5.5,1.3s3.3-1.3,5.3-1.3c1.5,0,2.6,0.7,4,1.1c3.2-5.2,5-11.4,5-18
		c0-19.3-15.7-35-35-35S1,16.8,1,36.2c0,6.5,1.8,12.5,4.8,17.7c1-0.4,1.9-0.8,3.1-0.8C10.9,53,12.4,54.3,14.4,54.3z M51.3,23.9
		c0.6-0.7,1.5-1,2.3-0.9c0.6-0.8,1.2-1.4,1.8-1.9c0.5-0.4,1.2-0.3,1.6,0.2s0.3,1.2-0.2,1.6c-0.4,0.2-0.7,0.6-1.1,1.1
		c1,1.1,0.9,2.9-0.2,4c-1,1-2.1,3.8-2.6,5.4c-0.4,1.1-1.4,1.9-2.5,2.1c-1.1,3.3-2.1,6.8-3,10.1c3.7-5.9,8.1-11.1,12.2-11.1
		c0.2,0,0.3,0.1,0.3,0.3s-0.1,0.3-0.3,0.3c-3.4,0-5.4,8.1-7.4,14c-0.1,0-0.2,0-0.3,0c-2,0-3.3,1.3-5.3,1.3c-1,0-1.8-0.4-2.7-0.7
		c0.9-3.8,2.4-9.5,4.2-14.9c-0.9-0.8-1.4-2-0.9-3C47.5,30.9,48.9,26.3,51.3,23.9z M28.2,22.4c6.8-0.5,6.4,11.7,8.5,23.4
		c0.4-6.8,1.6-13.2,2.9-18.6c-0.9-0.7-1.4-1.9-1.1-3.1c0-0.2,1.2-4.5,2.6-8.3c0.5-1.1,1.5-1.9,2.7-1.9c0.6-1.5,1-2.4,1-2.4
		c0.2-0.6,0.9-0.9,1.5-0.6c0.6,0.2,0.9,0.9,0.6,1.5c0,0-0.3,0.9-0.9,2.3c0.8,0.8,1.1,2,0.7,3.2c-1.3,3.5-2.4,7.7-2.4,7.7
		c-0.3,1.2-1.3,2-2.4,2.2C40.4,34,39.1,41.6,39,49.6c-0.9,0.4-1.8,0.8-3,0.8c-2,0-3.3-1.3-5.3-1.3c-0.1,0-0.3,0-0.4,0
		c-1.5-9.8,2.9-24.9-1.9-26c-0.2,0-0.4-0.1-0.5-0.4C27.9,22.5,28,22.4,28.2,22.4z M12.3,39.8c3.8,0,9,3.7,13.2,8.6
		c-0.8-3.3-1.8-7.3-3.1-10.9c-1.2-0.1-2.3-0.9-2.7-2.1c-0.6-1.8-1.5-4-2-4.5c-1-1-1.1-2.5-0.4-3.7c-0.6-0.7-1.2-1.3-1.8-1.6
		c-0.6-0.3-0.8-1-0.5-1.6s1-0.8,1.6-0.5c0.9,0.5,1.8,1.3,2.6,2.3c0.9-0.2,2,0.1,2.7,0.8c1.8,1.8,3.1,5.8,3.5,7c0.3,1.1,0,2.2-0.8,3
		c1.6,4.6,2.8,9.5,3.6,13c-0.9,0.4-1.8,0.8-2.9,0.8c-2,0-3.3-1.3-5.3-1.3c-0.4,0-0.7,0-1.1,0.1c-2-4-4.1-8.4-6.5-8.8
		c-0.2,0-0.3-0.1-0.4-0.3C12,39.9,12.1,39.8,12.3,39.8z"/>
	<path class="st2" d="M48.1,34.8c-1.8,5.4-3.3,11.1-4.2,14.9c0.9,0.3,1.7,0.7,2.7,0.7c2,0,3.3-1.3,5.3-1.3c0.1,0,0.2,0,0.3,0
		c2-5.9,4-14,7.4-14c0.2,0,0.3-0.1,0.3-0.3s-0.1-0.3-0.3-0.3c-4.1,0-8.5,5.2-12.2,11.1c0.9-3.3,1.9-6.8,3-10.1
		c1.1-0.2,2.1-1,2.5-2.1c0.5-1.6,1.6-4.4,2.6-5.4c1.1-1.1,1.2-2.9,0.2-4c0.4-0.5,0.7-0.9,1.1-1.1c0.5-0.4,0.6-1.1,0.2-1.6
		s-1.1-0.6-1.6-0.2c-0.6,0.5-1.2,1.1-1.8,1.9c-0.8-0.1-1.7,0.2-2.3,0.9c-2.4,2.4-3.8,7-4.1,7.9C46.7,32.8,47.2,34,48.1,34.8z"/>
	<path class="st2" d="M45.7,58.3c-0.1,0-0.3,0-0.4,0C45.4,58.3,45.5,58.3,45.7,58.3z"/>
	<path class="st2" d="M46.3,54.3c0.1,0,0.3,0,0.4,0C46.6,54.3,46.4,54.3,46.3,54.3z"/>
	<path class="st2" d="M46,58.3c0.9,0,1.6-0.2,2.4-0.6C47.7,58,46.9,58.3,46,58.3C46,58.3,46,58.3,46,58.3z"/>
	<path class="st2" d="M48.7,53.6c-0.6,0.2-1.2,0.5-1.9,0.6C47.5,54.1,48.1,53.8,48.7,53.6L48.7,53.6z"/>
	<path class="st2" d="M46,54.3C45.9,54.3,45.9,54.3,46,54.3C45.9,54.3,45.9,54.3,46,54.3C46,54.3,46,54.3,46,54.3z"/>
	<path class="st2" d="M14.2,58.3c2,0,3.3-1.3,5.3-1.3s3.3,1.3,5.3,1.3s3.3-1.3,5.3-1.3s3.3,1.3,5.3,1.3s3.3-1.3,5.3-1.3
		c1.7,0,2.9,0.9,4.4,1.2c-0.7-0.1-1.3-0.4-1.9-0.6v-4c0.5,0.2,1,0.4,1.5,0.5c-1.2-0.4-2.3-1.1-3.8-1.1c-2,0-3.3,1.3-5.3,1.3
		S32.3,53,30.3,53S27,54.3,25,54.3S21.7,53,19.7,53s-3.3,1.3-5.3,1.3S10.9,53,8.9,53c-1.2,0-2.1,0.5-3.1,0.8C6.5,55,7.2,56.1,8,57.1
		C8.3,57,8.6,57,8.9,57C10.9,57,12.2,58.3,14.2,58.3z"/>
	<path class="st2" d="M56.8,54.3c-2,0-3.5-1.3-5.5-1.3c-1,0-1.8,0.3-2.5,0.6c-0.6,0.2-1.2,0.5-1.9,0.6c0,0-0.1,0-0.1,0
		c-0.1,0-0.3,0-0.4,0c-0.1,0-0.2,0-0.3,0c0,0,0,0,0,0c0,0,0,0-0.1,0c-0.4,0-0.8-0.1-1.2-0.2c-0.5-0.1-1-0.3-1.5-0.5v4
		c0.6,0.2,1.2,0.5,1.9,0.6c0,0,0.1,0,0.1,0c0.1,0,0.3,0,0.4,0c0.1,0,0.2,0,0.3,0c0,0,0,0,0,0c0.9,0,1.7-0.3,2.4-0.6
		c0.9-0.3,1.8-0.7,2.8-0.7c2,0,3.3,1.3,5.3,1.3s3.3-1.3,5.3-1.3c0.7,0,1.3,0.2,1.9,0.4c0.8-1,1.5-2.1,2.2-3.3
		c-1.3-0.4-2.4-1.1-4-1.1C60.1,53,58.8,54.3,56.8,54.3z"/>
	<path class="st2" d="M12.4,40.4c2.4,0.4,4.5,4.8,6.5,8.8c0.4-0.1,0.7-0.1,1.1-0.1c2,0,3.3,1.3,5.3,1.3c1.1,0,2-0.4,2.9-0.8
		c-0.8-3.5-2-8.4-3.6-13c0.8-0.8,1.1-1.9,0.8-3c-0.4-1.2-1.7-5.2-3.5-7c-0.7-0.7-1.8-1-2.7-0.8c-0.8-1-1.7-1.8-2.6-2.3
		C16,23.2,15.3,23.4,15,24s-0.1,1.3,0.5,1.6c0.6,0.3,1.2,0.9,1.8,1.6c-0.7,1.2-0.6,2.7,0.4,3.7c0.5,0.5,1.4,2.7,2,4.5
		c0.4,1.2,1.5,2,2.7,2.1c1.3,3.6,2.3,7.6,3.1,10.9c-4.2-4.9-9.4-8.6-13.2-8.6c-0.2,0-0.3,0.1-0.3,0.3C12.1,40.3,12.2,40.4,12.4,40.4
		z"/>
	<path class="st2" d="M28.4,23.1c4.8,1.1,0.4,16.2,1.9,26c0.1,0,0.3,0,0.4,0c2,0,3.3,1.3,5.3,1.3c1.2,0,2.1-0.4,3-0.8
		c0.1-8,1.4-15.6,2.9-21.8c1.1-0.2,2.1-1,2.4-2.2c0,0,1.1-4.2,2.4-7.7c0.4-1.2,0.1-2.4-0.7-3.2c0.6-1.4,0.9-2.3,0.9-2.3
		c0.3-0.6,0-1.3-0.6-1.5c-0.6-0.3-1.3,0-1.5,0.6c0,0-0.4,0.9-1,2.4c-1.2,0-2.2,0.8-2.7,1.9c-1.4,3.8-2.6,8.1-2.6,8.3
		c-0.3,1.2,0.2,2.4,1.1,3.1c-1.3,5.4-2.5,11.8-2.9,18.6c-2.1-11.7-1.7-23.9-8.5-23.4c-0.2,0-0.3,0.1-0.3,0.3
		C28,23,28.2,23.1,28.4,23.1z"/>
</g>
</svg>
