<?xml version="1.0" encoding="utf-8"?>
<!-- Generator: Adobe Illustrator 27.5.0, SVG Export Plug-In . SVG Version: 6.00 Build 0)  -->
<svg version="1.1" id="Layer_1" xmlns="http://www.w3.org/2000/svg" xmlns:xlink="http://www.w3.org/1999/xlink" x="0px" y="0px"
	 viewBox="0 0 149.5 72" style="enable-background:new 0 0 149.5 72;" xml:space="preserve">
<style type="text/css">
	.st0{fill:none;}
	.st1{fill:#F77B00;}
	.st2{fill:#FFFFFF;}
</style>
<g>
	<g>
		<g>
			<g>
				<polygon class="st0" points="75.5,-0.1 146.2,0.1 146.9,70.6 75.5,70.4 				"/>
				<path class="st1" d="M111.2,70.4c19.3,0,35-15.7,35-35s-15.6-35-35-35s-35,15.7-35,35C76.2,54.9,91.8,70.4,111.2,70.4"/>
			</g>
		</g>
	</g>
	<path class="st2" d="M109.3,20.8c0,0-2,1.7-3,2.7c-1.5,1.4-3.5,4.4-3.5,4.4s-3.1,0.4-4.7,0.9c-3.9,1.6-6.6,3.2-8.1,3.9
		c-1.1,0.6-6.2,2.7-7.1,3.4c-0.9,0.6-2.3,1.6-2.3,2.5c-0.1,0.9,0.7,1.4,1.9,2.1c1.1,0.8,0.9,0.4,3.6,1.4c1.3,0.6,2.5,0.7,5.6,1.4
		c2,0.6,3.9,0.1,3.9,0.1s2.3,2.3,4.2,3.2s2.6,0.7,3.8,0.4c-1.3-1.8-2.3-3.7-2.3-3.7s4.9,0.5,7.7,0.4c3-0.1,5.3-0.6,6-0.8
		c1.5-0.5,3.1-0.9,3.1-0.9s0.9,1.6,1.7,2.3c1.1,0.9,2.9,0.8,3.1,0.5c0.4-0.5-0.1-0.9,0.6-2.3c0.7-1.3,1.3-1.6,1.6-2.1
		c0.4-0.6,0.8-1,1-2c1.7-0.6,5.6,0.1,6.5,0.4c0.6,0.1,1.6,1.5,2.5,2.3c1.1,1,2.1,1.7,3.2,2.3c0.9,0.5,2.3,0.8,2.7,0.5
		c-0.4-1.1-1.5-2.8-2-5.1s-0.8-4.1,0-7c0.6-2.1,1.6-4.5,1.5-5c-0.8,0-3.4,1.4-4.8,2.9c-1.9,2-3.2,2.7-3.2,2.7s-3,0.5-5.1-0.4
		c0.5-0.5,1-1.5,1.3-2c0.1-0.6-2-0.8-2.7-1.3c-1.7-1-2.3-1.1-2.8-1.6c-0.6-0.5-1.6-1.5-2-2.3c-0.2-0.7-1-0.7-1.9,0
		c-0.9,0.8-2.7,2.7-3.4,3.2c-0.4,0.2-1.7,0.1-1.6,0c0.5-1.9,0.9-3.2-0.2-3.6c-1.9-0.8-3.8-3.4-3.8-3.4L109.3,20.8z"/>
</g>
<g>
	<g>
		<rect x="2.9" y="1" class="st0" width="70" height="69.9"/>
		<path class="st1" d="M37.9,71c19.3,0,35-15.7,35-35S57.3,1,37.9,1s-35,15.7-35,35S18.6,71,37.9,71"/>
	</g>
</g>
<g>
	<path class="st2" d="M33.5,33.7v-2.9c0-2.1,1.7-3.7,3.7-3.7h1.2c0.5,0,1,0.1,1.6,0.3l6.2-6.3c-2-5.9-4.8-10.6-6.6-13.3
		c-0.9-1.1-2.7-1.1-3.6,0.1c-3.1,4.7-9.2,15.5-9.2,28.1c0,1.5,0.1,2.8,0.3,4.3L33.5,33.7z"/>
	<path class="st2" d="M42.2,40.9c0,2.1-1.7,3.7-3.7,3.7h-1.2c-1.6,0-2.8-1-3.5-2.3l8.4-8.3C42.2,34.1,42.2,40.9,42.2,40.9z
		 M62.6,14.9l-3.8-3.8c-0.6-0.6-1.6-0.6-2.3,0L52,15.6c-0.4,0.4-0.5,0.8-0.5,1.4l0.3,2.5L21.1,50l-2.5-0.3c-0.5-0.1-1,0.1-1.4,0.5
		l-4.5,4.5c-0.6,0.6-0.6,1.6,0,2.3l3.8,3.8c0.3,0.3,0.7,0.5,1.2,0.5s0.8-0.2,1.1-0.5l4.5-4.5c0.4-0.4,0.5-0.8,0.5-1.4l-0.3-2.5
		l4.8-4.8c2,7.3,5.4,13.2,7.5,16.4c0.8,1.2,2.7,1.2,3.5,0c3.1-4.7,9.2-15.5,9.2-28.1c0-2.7-0.3-5.2-0.7-7.7l6.4-6.4l2.5,0.3h0.2
		c0.5,0,0.8-0.2,1.1-0.5l4.5-4.5C63.2,16.5,63.2,15.5,62.6,14.9"/>
</g>
</svg>
