<?xml version="1.0" encoding="utf-8"?>
<!-- Generator: Adobe Illustrator 27.5.0, SVG Export Plug-In . SVG Version: 6.00 Build 0)  -->
<svg version="1.1" id="Layer_1" xmlns="http://www.w3.org/2000/svg" xmlns:xlink="http://www.w3.org/1999/xlink" x="0px" y="0px"
	 viewBox="0 0 149.5 72" style="enable-background:new 0 0 149.5 72;" xml:space="preserve">
<style type="text/css">
	.st0{fill:none;}
	.st1{fill-rule:evenodd;clip-rule:evenodd;fill:#FFFFFF;}
	.st2{fill:#FFFFFF;}
</style>
<g>
	<g>
		<rect x="1.3" y="1.5" class="st0" width="70" height="69.9"/>
		<path d="M36.2,71.4c19.3,0,35-15.7,35-35s-15.6-35-35-35s-35,15.7-35,35C1.3,55.8,16.9,71.4,36.2,71.4"/>
	</g>
</g>
<path class="st1" d="M65.2,35.4c-3.7,5.9-11,14.4-22.2,14.4H12.9c-0.4,0-0.6-0.3-0.7-0.7l-1.8-7.9c-0.1-0.5,0.2-1.1,0.6-1.1
	L65.2,35.4L65.2,35.4z M14.4,33l-4.7,0.4c-0.4,0-0.7-0.4-0.8-0.9V32c0-0.5,0.3-1,0.7-1l14.9-1.2c0.4,0,0.7,0.4,0.8,0.9v0.5
	c0,0.5-0.3,1-0.7,1l-1.7,0.2c-0.4,0-0.7,0.4-0.7,1l0,0c0,0.5,0.4,1,0.8,1l3-0.3c0.4,0,0.6-0.4,0.6-0.8l0.5-6.2c0-0.3,0-0.4-0.2-0.7
	l-1.1-1.8c-0.4-0.6-0.1-1.4,0.5-1.5l21.1-2c0.3,0,0.4,0.1,0.6,0.4l6.2,9.5c0.2,0.3,0.4,0.4,0.6,0.4l11.8-1.3c0.6-0.1,1,0.8,0.6,1.4
	c-0.3,0.5-0.6,1.1-1,1.9c-0.1,0.3-0.4,0.4-0.5,0.4l-55.3,4.7c-0.4,0-0.6-0.3-0.7-0.7l-0.3-1.1c-0.1-0.5,0.2-1.1,0.6-1.1l4.4-0.4
	c0.4,0,0.6-0.4,0.6-1v-0.1C15.2,33.4,14.8,32.9,14.4,33z M40.2,25.9l1.1,5.6c0.1,0.4,0.4,0.7,0.7,0.7l7.1-0.7
	c0.5-0.1,0.9-0.9,0.5-1.5l-3-5.3c-0.2-0.3-0.4-0.4-0.6-0.4l-5.1,0.4C40.4,24.7,40.1,25.3,40.2,25.9z M30.9,33.4l7.2-0.7
	c0.4,0,0.7-0.5,0.6-1.1l-0.9-5.7c-0.1-0.4-0.4-0.8-0.7-0.8l-6.2,0.4c-0.4,0-0.7,0.4-0.7,0.9L30,32.5C30.1,32.9,30.4,33.4,30.9,33.4z
	 M16.9,33.6L16.9,33.6c0,0.6,0.4,1.1,0.8,1l2.3-0.3c0.4,0,0.6-0.4,0.6-1v-0.1c0-0.5-0.4-1-0.8-1l-2.3,0.2
	C17.1,32.7,16.9,33.2,16.9,33.6z"/>
<g>
	<g>
		<g>
			<g>
				<polygon class="st0" points="75.5,-0.1 146.2,0.1 146.9,70.6 75.5,70.4 				"/>
				<path d="M111.2,70.4c19.3,0,35-15.7,35-35s-15.6-35-35-35s-35,15.7-35,35C76.2,54.9,91.8,70.4,111.2,70.4"/>
			</g>
		</g>
	</g>
	<path class="st2" d="M109.3,20.8c0,0-2,1.7-3,2.7c-1.5,1.4-3.5,4.4-3.5,4.4s-3.1,0.4-4.7,0.9c-3.9,1.6-6.6,3.2-8.1,3.9
		c-1.1,0.6-6.2,2.7-7.1,3.4c-0.9,0.6-2.3,1.6-2.3,2.5c-0.1,0.9,0.7,1.4,1.9,2.1c1.1,0.8,0.9,0.4,3.6,1.4c1.3,0.6,2.5,0.7,5.6,1.4
		c2,0.6,3.9,0.1,3.9,0.1s2.3,2.3,4.2,3.2s2.6,0.7,3.8,0.4c-1.3-1.8-2.3-3.7-2.3-3.7s4.9,0.5,7.7,0.4c3-0.1,5.3-0.6,6-0.8
		c1.5-0.5,3.1-0.9,3.1-0.9s0.9,1.6,1.7,2.3c1.1,0.9,2.9,0.8,3.1,0.5c0.4-0.5-0.1-0.9,0.6-2.3c0.7-1.3,1.3-1.6,1.6-2.1
		c0.4-0.6,0.8-1,1-2c1.7-0.6,5.6,0.1,6.5,0.4c0.6,0.1,1.6,1.5,2.5,2.3c1.1,1,2.1,1.7,3.2,2.3c0.9,0.5,2.3,0.8,2.7,0.5
		c-0.4-1.1-1.5-2.8-2-5.1s-0.8-4.1,0-7c0.6-2.1,1.6-4.5,1.5-5c-0.8,0-3.4,1.4-4.8,2.9c-1.9,2-3.2,2.7-3.2,2.7s-3,0.5-5.1-0.4
		c0.5-0.5,1-1.5,1.3-2c0.1-0.6-2-0.8-2.7-1.3c-1.7-1-2.3-1.1-2.8-1.6c-0.6-0.5-1.6-1.5-2-2.3c-0.2-0.7-1-0.7-1.9,0
		c-0.9,0.8-2.7,2.7-3.4,3.2c-0.4,0.2-1.7,0.1-1.6,0c0.5-1.9,0.9-3.2-0.2-3.6c-1.9-0.8-3.8-3.4-3.8-3.4L109.3,20.8z"/>
</g>
</svg>
