<?xml version="1.0" encoding="utf-8"?>
<!-- Generator: Adobe Illustrator 27.5.0, SVG Export Plug-In . SVG Version: 6.00 Build 0)  -->
<svg version="1.1" id="Layer_2" xmlns="http://www.w3.org/2000/svg" xmlns:xlink="http://www.w3.org/1999/xlink" x="0px" y="0px"
	 viewBox="0 0 72 72" style="enable-background:new 0 0 72 72;" xml:space="preserve">
<style type="text/css">
	.st0{fill-rule:evenodd;clip-rule:evenodd;fill:#F77B00;}
</style>
<g>
	<path class="st0" d="M71,36.5c0-19.3-15.7-35-35-35S1,17.2,1,36.5s15.7,35,35,35C55.3,71.5,71,55.8,71,36.5 M34.5,33.6
		c0.8,0,3.8-2.4,4.7-3.8c3.8-5.4,5.4-18.5,6-17c0.6,1.5,2,5.1,2,5.1s1.4-5.2,1.8-3.4s0.7,3.3,2.4,5.9s9.1,7.6,9.1,7.6
		s0.2,4.3-2.7,4.2c-3-0.1-6.5-1.8-7.3,1.2S49.8,59,49.8,60c0,1.1-3.4,0.3-5.1,0s-0.2-8.6-3-11.4c-2.7-2.8-15.1-2.7-17.3,0
		S23.2,59,22.9,60c-0.5,1.6-6.6,1.6-6.6,0s0.3-15.1,0-20.8s-4-12.7-4.9-14.6c-0.9-1.9,0.7-2,1.4-1.2c0.7,0.8,6.6,10.2,8.3,10.2
		C22.8,33.5,29.8,33.4,34.5,33.6z"/>
</g>
</svg>
