<?xml version="1.0" encoding="utf-8"?>
<!-- Generator: Adobe Illustrator 27.5.0, SVG Export Plug-In . SVG Version: 6.00 Build 0)  -->
<svg version="1.1" id="Layer_1" xmlns="http://www.w3.org/2000/svg" xmlns:xlink="http://www.w3.org/1999/xlink" x="0px" y="0px"
	 viewBox="0 0 146.2 146.3" style="enable-background:new 0 0 146.2 146.3;" xml:space="preserve">
<style type="text/css">
	.st0{fill:none;}
	.st1{fill-rule:evenodd;clip-rule:evenodd;fill:#FFFFFF;}
	.st2{fill:#FFFFFF;}
</style>
<g>
	<g>
		<rect x="38.9" y="67.3" class="st0" width="70" height="69.9"/>
		<path d="M73.8,137.2c19.3,0,35-15.7,35-35s-15.6-35-35-35s-35,15.7-35,35C38.9,121.7,54.5,137.2,73.8,137.2"/>
	</g>
</g>
<path class="st1" d="M102.8,101.2c-3.7,5.9-11,14.4-22.2,14.4H50.5c-0.4,0-0.6-0.3-0.7-0.7l-1.8-7.9c-0.1-0.5,0.2-1.1,0.6-1.1
	L102.8,101.2L102.8,101.2z M52,98.8l-4.7,0.4c-0.4,0-0.7-0.4-0.8-0.9v-0.5c0-0.5,0.3-1,0.7-1l14.9-1.2c0.4,0,0.7,0.4,0.8,0.9V97
	c0,0.5-0.3,1-0.7,1l-1.7,0.2c-0.4,0-0.7,0.4-0.7,1l0,0c0,0.5,0.4,1,0.8,1l3-0.3c0.4,0,0.6-0.4,0.6-0.8l0.5-6.2c0-0.3,0-0.4-0.2-0.7
	l-1.1-1.8c-0.4-0.6-0.1-1.4,0.5-1.5l21.1-2c0.3,0,0.4,0.1,0.6,0.4l6.2,9.5c0.2,0.3,0.4,0.4,0.6,0.4l11.8-1.3c0.6-0.1,1,0.8,0.6,1.4
	c-0.3,0.5-0.6,1.1-1,1.9c-0.1,0.3-0.4,0.4-0.5,0.4L48,104.3c-0.4,0-0.6-0.3-0.7-0.7l-0.3-1.1c-0.1-0.5,0.2-1.1,0.6-1.1l4.4-0.4
	c0.4,0,0.6-0.4,0.6-1V100C52.8,99.2,52.4,98.8,52,98.8z M77.8,91.8l1.1,5.6c0.1,0.4,0.4,0.7,0.7,0.7l7.1-0.7
	c0.5-0.1,0.9-0.9,0.5-1.5l-3-5.3c-0.2-0.3-0.4-0.4-0.6-0.4l-5.1,0.4C78,90.6,77.7,91.2,77.8,91.8z M68.5,99.2l7.2-0.7
	c0.4,0,0.7-0.5,0.6-1.1l-0.9-5.7C75.3,91.3,75,91,74.7,91l-6.2,0.4c-0.4,0-0.7,0.4-0.7,0.9l-0.2,6.1C67.7,98.8,68,99.2,68.5,99.2z
	 M54.5,99.4L54.5,99.4c0,0.6,0.4,1.1,0.8,1l2.3-0.3c0.4,0,0.6-0.4,0.6-1v-0.1c0-0.5-0.4-1-0.8-1l-2.3,0.2
	C54.7,98.6,54.5,99.1,54.5,99.4z"/>
<g>
	<g>
		<rect x="0.7" y="4.7" class="st0" width="70" height="69.9"/>
		<path d="M35.7,74.7c19.3,0,35-15.7,35-35s-15.6-35-35-35s-35,15.7-35,35S16.4,74.7,35.7,74.7"/>
	</g>
</g>
<g>
	<path class="st2" d="M31.3,37.4v-2.9c0-2.1,1.7-3.7,3.7-3.7h1.2c0.5,0,1,0.1,1.6,0.3l6.2-6.3c-2-5.9-4.8-10.6-6.6-13.3
		c-0.9-1.1-2.7-1.1-3.6,0.1c-3.1,4.7-9.2,15.5-9.2,28.1c0,1.5,0.1,2.8,0.3,4.3L31.3,37.4z"/>
	<path class="st2" d="M40,44.6c0,2.1-1.7,3.7-3.7,3.7h-1.2c-1.6,0-2.8-1-3.5-2.3l8.4-8.3C40,37.8,40,44.6,40,44.6z M60.4,18.6
		l-3.8-3.8c-0.6-0.6-1.6-0.6-2.3,0l-4.5,4.5c-0.4,0.4-0.5,0.8-0.5,1.4l0.3,2.5L18.9,53.7l-2.5-0.3c-0.5-0.1-1,0.1-1.4,0.5l-4.5,4.5
		c-0.6,0.6-0.6,1.6,0,2.3l3.8,3.8c0.3,0.3,0.7,0.5,1.2,0.5s0.8-0.2,1.1-0.5L21,60c0.4-0.4,0.5-0.8,0.5-1.4l-0.3-2.5l4.8-4.8
		c2,7.3,5.4,13.2,7.5,16.4c0.8,1.2,2.7,1.2,3.5,0c3.1-4.7,9.2-15.5,9.2-28.1c0-2.7-0.3-5.2-0.7-7.7l6.4-6.4l2.5,0.3h0.2
		c0.5,0,0.8-0.2,1.1-0.5l4.5-4.5C61,20.2,61,19.2,60.4,18.6"/>
</g>
<g>
	<g>
		<g>
			<g>
				<polygon class="st0" points="74.1,3.6 144.9,3.8 145.6,74.2 74.1,74.1 				"/>
				<path d="M109.9,74.1c19.3,0,35-15.7,35-35s-15.6-35-35-35s-35,15.7-35,35C74.9,58.6,90.6,74.1,109.9,74.1"/>
			</g>
		</g>
	</g>
	<path class="st2" d="M108.1,24.5c0,0-2,1.7-3,2.7c-1.5,1.4-3.5,4.4-3.5,4.4s-3.1,0.4-4.7,0.9c-3.9,1.6-6.6,3.2-8.1,3.9
		c-1.1,0.6-6.2,2.7-7.1,3.4c-0.9,0.6-2.3,1.6-2.3,2.5c-0.1,0.9,0.7,1.4,1.9,2.1c1.1,0.8,0.9,0.4,3.6,1.4c1.3,0.6,2.5,0.7,5.6,1.4
		c2,0.6,3.9,0.1,3.9,0.1s2.3,2.3,4.2,3.2s2.6,0.7,3.8,0.4c-1.3-1.8-2.3-3.7-2.3-3.7s4.9,0.5,7.7,0.4c3-0.1,5.3-0.6,6-0.8
		c1.5-0.5,3.1-0.9,3.1-0.9s0.9,1.6,1.7,2.3c1.1,0.9,2.9,0.8,3.1,0.5c0.4-0.5-0.1-0.9,0.6-2.3c0.7-1.3,1.3-1.6,1.6-2.1
		c0.4-0.6,0.8-1,1-2c1.7-0.6,5.6,0.1,6.5,0.4c0.6,0.1,1.6,1.5,2.5,2.3c1.1,1,2.1,1.7,3.2,2.3c0.9,0.5,2.3,0.8,2.7,0.5
		c-0.4-1.1-1.5-2.8-2-5.1s-0.8-4.1,0-7c0.6-2.1,1.6-4.5,1.5-5c-0.8,0-3.4,1.4-4.8,2.9c-1.9,2-3.2,2.7-3.2,2.7s-3,0.5-5.1-0.4
		c0.5-0.5,1-1.5,1.3-2c0.1-0.6-2-0.8-2.7-1.3c-1.7-1-2.3-1.1-2.8-1.6c-0.6-0.5-1.6-1.5-2-2.3c-0.2-0.7-1-0.7-1.9,0
		c-0.9,0.8-2.7,2.7-3.4,3.2c-0.4,0.2-1.7,0.1-1.6,0c0.5-1.9,0.9-3.2-0.2-3.6c-1.9-0.8-3.8-3.4-3.8-3.4L108.1,24.5z"/>
</g>
</svg>
